<?xml version="1.0" encoding="iso-8859-1"?>
<!-- Uploaded to: SVG Repo, www.svgrepo.com, Generator: SVG Repo Mixer Tools -->
<svg version="1.1" id="Layer_1" xmlns="http://www.w3.org/2000/svg" xmlns:xlink="http://www.w3.org/1999/xlink" 
	 viewBox="0 0 512 512" xml:space="preserve">
<g>
	<path style="fill:#F7B239;" d="M414.75,379.001l-0.177,0.481c-12.991-4.787-24.866-12.517-34.639-22.825l8.416-22.838
		l47.859-129.871l0.013,0.005c10.161,9.672,26.777,4.33,39.685,9.086L414.75,379.001z"/>
	<path style="fill:#F7B239;" d="M475.908,213.04c12.895,4.752,22.071,19.599,36.078,18.833l0.013,0.005l-70.037,188.017
		c-14.109,1.507-28.189-0.327-41.153-5.104l13.94-35.79L475.908,213.04z"/>
</g>
<rect x="347.771" y="295.049" transform="matrix(0.3458 -0.9383 0.9383 0.3458 6.0837 613.4591)" style="fill:#E09B2D;" width="190.419" height="14.636"/>
<path style="fill:#F95428;" d="M503.989,198.806c-7.168,1.757-20.637,16.977-28.08,14.234c-7.457-2.749-7.821-23.049-12.143-29.057
	l31.177-22.592L503.989,198.806z"/>
<path style="fill:#CCCCCC;" d="M511.987,231.873c-14.008,0.765-27.869-1.364-40.764-6.116
	c-12.909-4.757-24.838-12.132-34.999-21.804l-0.013-0.005l27.556-19.964c4.323,6.006,10.405,10.791,17.861,13.538
	c7.443,2.743,15.195,3.042,22.361,1.285L512,231.879L511.987,231.873z"/>
<path style="fill:#F7B239;" d="M120.731,240.987l46.525,71.902c-1.493-0.079,17.856,37.571,18.149,39.048
	c15.352,77.282-50.702,78.947-109.994,57.616c-1.689-0.131-10.305-26.791-12.021-26.791c-0.223,0-0.445,0-0.668,0.013L15.19,309.301
	L120.731,240.987z"/>
<polygon style="fill:#2BA5F7;" points="382.189,166.283 378.261,200.054 378.117,200.041 334.499,196.256 336.45,162.315 
	359.998,143.734 "/>
<g>
	<path style="fill:#F95428;" d="M378.261,200.054l-6.652,57.301c-12.047,47.441-39.807,38.275-39.807-14.338l2.697-46.76
		l43.618,3.784L378.261,200.054z"/>
	<path style="fill:#F95428;" d="M260.371,220.822l5.801,26.058c26.608,50.06-32.808,59.717-56.909,35.617l-10.659-47.952
		l25.879-14.862L260.371,220.822z"/>
</g>
<path style="fill:#F7B239;" d="M366.672,2.445c0,0,91.308,65.067,15.517,163.838l-45.739-3.968l-6.128-11.942
	c-12.833-24.997-4.478-55.639,19.249-70.671c16.093-10.188,25.259-27.708,25.259-45.883c0-6.429-1.152-12.95-3.549-19.262
	L366.672,2.445z"/>
<path style="fill:#2BA5F7;" d="M455.374,385.681c25.731,8.066,44.403,32.082,44.403,60.47c0,35.015-28.376,63.404-63.39,63.404
	c-20.833,0-356.118,0-372.997,0C28.376,509.555,0,481.166,0,446.152c0-34.779,28.009-63.024,62.723-63.377
	c0.223-0.013,0.445-0.013,0.668-0.013c1.715,0,3.418,0.092,5.107,0.223c12.112-40.606,49.72-70.213,94.267-70.213
	c1.506,0,2.999,0.039,4.491,0.118c6.469,0.288,12.78,1.218,18.869,2.697c6.037-12.191,13.854-23.334,23.138-33.09
	c15.452-16.29,34.962-28.69,56.909-35.617c12.78-4.046,26.385-6.22,40.501-6.22c8.59,0,16.984,0.799,25.128,2.357
	c14.181,2.671,27.577,7.569,39.807,14.338c13.972,7.713,26.425,17.848,36.796,29.829c11.052,12.767,19.733,27.642,25.364,43.945
	c4.766,13.775,7.359,28.572,7.359,43.971c0,2.632-0.105,5.238-0.249,7.844C445.894,383.298,450.739,384.228,455.374,385.681z"/>
<path style="fill:#CCCCCC;" d="M251.27,177.505c-1.414-6.39-1.021-12.911,1.113-18.123c1.309-3.221,1.938-6.848,1.938-10.554
	c0-7.778-2.75-15.962-7.726-21.658l-42.107-48.163l12.196,54.85c0.941,4.236-1.728,8.433-5.965,9.374
	c-0.574,0.128-1.148,0.19-1.714,0.19c-3.601,0-6.847-2.492-7.663-6.153l-12.196-54.85l-17.729,61.46
	c-3.103,10.751,0.511,24.343,8.407,31.636c2.069,1.912,3.876,4.308,5.356,7.006c1.467,2.711,2.606,5.735,3.313,8.93l4.125,18.568
	l26.395,3.553l36.38-17.511L251.27,177.505z"/>
<path style="fill:#F7B239;" d="M378.128,209.863c-0.285,0-0.572-0.012-0.86-0.037l-43.521-3.776
	c-5.073-0.385-9.076-4.622-9.076-9.792c0-5.424,4.391-9.821,9.814-9.821h0.014c0.284,0,0.567,0.012,0.849,0.037l43.618,3.784
	c5.404,0.469,9.404,5.23,8.934,10.634C387.457,206.004,383.167,209.862,378.128,209.863z"/>
<path style="fill:#2197D8;" d="M350.5,458.094c-3.977,0-7.202-3.224-7.202-7.202c0-26.549-21.606-48.148-48.162-48.148
	c-1.444,0-2.979,0.073-4.567,0.219c-2.738,0.259-5.4-1.089-6.826-3.454c-12.013-19.932-33.061-31.831-56.305-31.831
	c-36.217,0-65.681,29.465-65.681,65.682c0,3.978-3.225,7.202-7.202,7.202c-3.977,0-7.202-3.224-7.202-7.202
	c0-44.16,35.926-80.086,80.085-80.086c26.865,0,51.319,13.033,66.265,35.084c0.483-0.012,0.961-0.018,1.434-0.018
	c34.499,0,62.565,28.061,62.565,62.552C357.702,454.869,354.477,458.094,350.5,458.094z"/>
<path style="fill:#F7B239;" d="M271.842,205.344c0.21,0.917,0.301,1.833,0.301,2.737c0,5.788-3.994,11.012-9.886,12.309
	l-63.652,14.155l-1.886,0.419c-6.809,1.506-13.54-2.776-15.059-9.585c-0.21-0.917-0.301-1.833-0.301-2.737
	c0-5.788,3.994-11.012,9.886-12.322l1.375-0.301l23.452-5.212l39.323-8.747l1.388-0.301
	C263.579,194.253,270.323,198.535,271.842,205.344z"/>
</svg>