<?xml version="1.0" encoding="iso-8859-1"?>
<!-- Uploaded to: SVG Repo, www.svgrepo.com, Generator: SVG Repo Mixer Tools -->
<svg height="800px" width="800px" version="1.1" id="Layer_1" xmlns="http://www.w3.org/2000/svg" xmlns:xlink="http://www.w3.org/1999/xlink" 
	 viewBox="0 0 512.003 512.003" xml:space="preserve">
<path style="fill:#BCBEC0;" d="M441.906,482.905L318.75,371.751V237.466c0-4.43-1.759-8.676-4.892-11.807l-79.426-79.425
	c-6.52-6.52-17.094-6.52-23.615,0s-6.521,17.094,0,23.615l74.535,74.534v127.362L162.187,482.906
	c-6.846,6.18-7.387,16.738-1.209,23.585c6.181,6.846,16.738,7.388,23.585,1.209l56.63-51.111l44.159,17.544v21.17
	c0,9.222,7.476,16.698,16.698,16.698s16.698-7.476,16.698-16.698v-21.174l44.151-17.54l56.63,51.111
	c6.841,6.174,17.401,5.642,23.585-1.209C449.293,499.643,448.753,489.085,441.906,482.905z M268.84,431.634l16.512-14.904v21.464
	L268.84,431.634z M318.75,438.191v-21.453l16.505,14.896L318.75,438.191z"/>
<g>
	<path style="fill:#808285;" d="M318.75,237.466c0-4.43-1.759-8.676-4.892-11.807l-79.426-79.425c-6.52-6.52-17.094-6.52-23.615,0
		l107.932,107.932v-16.699H318.75z"/>
	<path style="fill:#808285;" d="M441.906,482.905L318.75,371.751V237.466c0-4.43-1.759-8.676-4.892-11.807l-11.811-11.811v298.154
		c0.001,0,0.002,0,0.004,0c9.222,0,16.698-7.476,16.698-16.698V474.13l44.151-17.54l56.63,51.111
		c6.841,6.174,17.4,5.642,23.585-1.209C449.293,499.643,448.753,489.085,441.906,482.905z M318.75,438.191v-21.453l16.505,14.896
		L318.75,438.191z"/>
</g>
<path style="fill:#F1F2F2;" d="M342.732,312.139h-40.681c-9.222,0-16.698-7.476-16.698-16.698v-57.975
	c0-9.222,7.476-16.698,16.698-16.698h40.681c9.222,0,16.698,7.476,16.698,16.698v57.975
	C359.43,304.662,351.954,312.139,342.732,312.139z"/>
<path style="fill:#0778B8;" d="M117.231,307.247c-70.194-70.194-70.194-184.407,0-254.601s184.408-70.194,254.602,0
	c6.521,6.521,6.521,17.094,0,23.615c-6.52,6.52-17.094,6.52-23.615,0c-2.598-2.593-19.275-0.925-36.785,16.585
	c-17.513,17.515-19.189,34.198-16.593,36.793c6.519,6.521,6.521,17.094-0.001,23.616c-6.521,6.518-17.094,6.519-23.616-0.001
	c-0.854-0.856-4.467-1.585-10.536,0.081c-17.9,4.916-37.853,24.875-42.768,42.768c-1.668,6.067-0.935,9.683-0.081,10.537
	c6.521,6.521,6.521,17.094,0,23.615c-6.52,6.52-17.094,6.52-23.615,0c-0.854-0.854-4.47-1.589-10.534,0.078
	c-17.894,4.916-37.854,24.874-42.766,42.766c-1.665,6.065-0.932,9.68-0.078,10.534c6.521,6.521,6.521,17.094,0,23.615
	C134.324,313.769,123.752,313.768,117.231,307.247z"/>
<path style="fill:#224F9C;" d="M371.834,52.646c-70.194-70.194-184.408-70.194-254.602,0l117.206,117.206
	c7.839-7.84,17.302-14.058,26.252-16.516c6.068-1.666,9.682-0.937,10.536-0.081c6.521,6.52,17.094,6.519,23.616,0.001
	c6.521-6.522,6.52-17.095,0.001-23.616c-2.596-2.595-0.921-19.277,16.593-36.793c17.51-17.51,34.187-19.179,36.785-16.585
	c6.52,6.52,17.094,6.52,23.615,0C378.354,69.739,378.355,59.167,371.834,52.646z"/>
<path style="fill:#BCBEC0;" d="M342.732,220.767H318.75v91.371h23.982c9.222,0,16.698-7.476,16.698-16.698v-57.975
	C359.43,228.243,351.954,220.767,342.732,220.767z"/>
</svg>