<?xml version="1.0" encoding="iso-8859-1"?>
<!-- Uploaded to: SVG Repo, www.svgrepo.com, Generator: SVG Repo Mixer Tools -->
<svg height="800px" width="800px" version="1.1" id="Layer_1" xmlns="http://www.w3.org/2000/svg" xmlns:xlink="http://www.w3.org/1999/xlink" 
	 viewBox="0 0 512.001 512.001" xml:space="preserve">
<path style="fill:#BCBEC0;" d="M446.182,482.911L323.039,371.767V173.535c0-9.22-7.475-16.696-16.696-16.696
	c-9.22,0-16.696,7.475-16.696,16.696v198.239L166.511,482.909c-6.845,6.178-7.386,16.736-1.209,23.581
	c6.183,6.85,16.74,7.383,23.581,1.209l56.621-51.102l44.144,17.538v21.169c0,9.22,7.475,16.696,16.696,16.696
	c9.22,0,16.696-7.475,16.696-16.696v-21.168l44.152-17.542l56.619,51.102c6.843,6.18,17.402,5.635,23.581-1.208
	C453.568,499.645,453.028,489.088,446.182,482.911z M273.145,431.648l16.502-14.894v21.449L273.145,431.648z M323.039,438.206
	v-21.461l16.51,14.901L323.039,438.206z"/>
<path style="fill:#808285;" d="M446.182,482.911L323.039,371.767V173.535c0-9.219-7.473-16.693-16.692-16.696V512
	c9.218-0.002,16.692-7.476,16.692-16.696v-21.168l44.152-17.542l56.619,51.102c6.843,6.18,17.402,5.635,23.581-1.208
	C453.568,499.645,453.029,489.088,446.182,482.911z M323.039,438.206v-21.461l16.51,14.901L323.039,438.206z"/>
<path style="fill:#224F9C;" d="M375.028,190.23H262.566c-12.909,0-20.947-14.078-14.369-25.197
	c16.106-27.221,16.127-61.438,0.001-88.693c-6.575-11.109,1.449-25.197,14.368-25.197h112.462c9.22,0,16.696,7.475,16.696,16.696
	v105.695C391.723,182.755,384.249,190.23,375.028,190.23z"/>
<path style="fill:#0778B8;" d="M172.988,241.373c-9.22,0-16.696-7.475-16.696-16.696V16.696c0-9.22,7.475-16.696,16.696-16.696
	c42.476,0,82.307,22.739,103.95,59.342c22.304,37.7,22.328,84.947-0.002,122.693C255.295,218.636,215.464,241.373,172.988,241.373z"
	/>
<path style="fill:#10316B;" d="M375.028,51.144h-68.681V190.23h68.681c9.22,0,16.696-7.475,16.696-16.696V67.84
	C391.723,58.62,384.249,51.144,375.028,51.144z"/>
<g>
	<path style="fill:#FEE856;" d="M112.871,137.383H77.004c-9.22,0-16.696-7.475-16.696-16.696s7.475-16.696,16.696-16.696h35.869
		c9.22,0,16.696,7.475,16.696,16.696S122.092,137.383,112.871,137.383z"/>
	<path style="fill:#FEE856;" d="M101.066,75.1L75.704,49.737c-6.52-6.519-6.52-17.091,0-23.611c6.519-6.519,17.091-6.519,23.611,0
		l25.363,25.363c6.52,6.519,6.52,17.091,0,23.611C118.156,81.621,107.586,81.619,101.066,75.1z"/>
	<path style="fill:#FEE856;" d="M75.704,215.249c-6.52-6.519-6.52-17.09,0-23.611l25.363-25.364c6.519-6.519,17.091-6.521,23.611,0
		c6.52,6.519,6.52,17.09,0,23.611l-25.363,25.364C92.794,221.768,82.222,221.769,75.704,215.249z"/>
</g>
</svg>