<?xml version="1.0" encoding="iso-8859-1"?>
<!-- Uploaded to: SVG Repo, www.svgrepo.com, Generator: SVG Repo Mixer Tools -->
<svg height="800px" width="800px" version="1.1" id="Layer_1" xmlns="http://www.w3.org/2000/svg" xmlns:xlink="http://www.w3.org/1999/xlink" 
	 viewBox="0 0 512 512" xml:space="preserve">
<path style="fill:#BCBEC0;" d="M398.783,486.416L272.691,285.864v-32.649h25.203c0.191,9.055,7.576,16.341,16.678,16.341
	c9.22,0,16.696-7.475,16.696-16.696v-32.679c0-9.22-7.475-16.696-16.696-16.696c-9.1,0-16.486,7.285-16.678,16.339h-25.203v-52.671
	c0-9.22-7.475-16.696-16.696-16.696c-9.22,0-16.696,7.475-16.696,16.696V285.88L113.217,486.416
	c-4.908,7.807-2.559,18.112,5.247,23.021c7.809,4.909,18.112,2.558,23.021-5.247l54.987-87.458l42.829,29.985v48.585
	c0,9.22,7.475,16.696,16.696,16.696s16.696-7.475,16.696-16.696v-48.58l42.837-29.991l54.987,87.458
	c4.905,7.802,15.211,10.156,23.021,5.247C401.342,504.528,403.692,494.221,398.783,486.416z M214.266,388.428l25.034-39.817v57.344
	L214.266,388.428z M272.691,405.961v-57.364l25.043,39.831L272.691,405.961z"/>
<path style="fill:#808285;" d="M398.783,486.416L272.691,285.864v-32.649h25.203c0.191,9.055,7.576,16.341,16.678,16.341
	c9.22,0,16.696-7.475,16.696-16.696v-32.679c0-9.22-7.475-16.696-16.696-16.696c-9.1,0-16.486,7.285-16.678,16.339h-25.203v-52.671
	c0-9.219-7.473-16.693-16.691-16.696v361.539c9.218-0.002,16.691-7.476,16.691-16.696v-48.58l42.838-29.991l54.987,87.458
	c4.905,7.802,15.211,10.156,23.021,5.247C401.342,504.528,403.692,494.221,398.783,486.416z M272.691,405.961v-57.364l25.043,39.831
	L272.691,405.961z"/>
<path style="fill:#0778B8;" d="M354.105,183.847H157.896c-21.481,0-38.956-17.476-38.956-38.956V38.956
	C118.94,17.476,136.415,0,157.896,0h196.208c21.481,0,38.956,17.476,38.956,38.956v105.935
	C393.061,166.371,375.584,183.847,354.105,183.847z"/>
<path style="fill:#224F9C;" d="M354.105,0H256v183.847h98.104c21.481,0,38.956-17.476,38.956-38.956V38.956
	C393.061,17.476,375.584,0,354.105,0z"/>
<path style="fill:#FEE856;" d="M256,138.999c-25.957,0-47.075-21.118-47.075-47.075S230.043,44.849,256,44.849
	s47.075,21.118,47.075,47.075S281.957,138.999,256,138.999z"/>
<path style="fill:#FFCE3E;" d="M256,44.849v94.15c25.957,0,47.075-21.118,47.075-47.075S281.957,44.849,256,44.849z"/>
</svg>