<?xml version="1.0" encoding="iso-8859-1"?>
<!-- Uploaded to: SVG Repo, www.svgrepo.com, Generator: SVG Repo Mixer Tools -->
<svg version="1.1" id="Layer_1" xmlns="http://www.w3.org/2000/svg" xmlns:xlink="http://www.w3.org/1999/xlink" 
	 viewBox="0 0 512 512" xml:space="preserve">
<g>
	<rect x="434.087" y="180.87" style="fill:#7E8488;" width="66.783" height="66.783"/>
	<polygon style="fill:#7E8488;" points="289.391,475.826 289.391,503.652 222.609,503.652 222.609,475.826 222.609,436.87 
		289.391,436.87 	"/>
	<rect x="11.13" y="180.87" style="fill:#7E8488;" width="66.783" height="66.783"/>
</g>
<path style="fill:#E7ECED;" d="M256,153.043c18.477,0,33.391,14.915,33.391,33.391S274.477,219.826,256,219.826
	s-33.391-14.915-33.391-33.391S237.523,153.043,256,153.043z"/>
<path style="fill:#FFD311;" d="M256,381.217l-116.87-256l22.261-55.652h189.217l22.261,55.652L256,381.217z M256,219.826
	c18.477,0,33.391-14.915,33.391-33.391S274.477,153.043,256,153.043s-33.391,14.915-33.391,33.391S237.523,219.826,256,219.826z"/>
<polygon style="fill:#AFB6BB;" points="361.739,8.348 378.435,69.565 350.609,69.565 161.391,69.565 133.565,69.565 150.261,8.348 
	"/>
<path style="fill:#FAB91C;" d="M222.609,186.435c0-18.477,14.915-33.391,33.391-33.391V69.565h-94.609l-22.261,55.652l116.87,256
	V219.826C237.523,219.826,222.609,204.911,222.609,186.435z"/>
<g>
	<polygon style="fill:#92999D;" points="256,8.348 150.261,8.348 133.565,69.565 161.391,69.565 256,69.565 	"/>
	<rect x="434.087" y="180.87" style="fill:#92999D;" width="66.783" height="38.957"/>
	<rect x="222.609" y="436.87" style="fill:#92999D;" width="66.783" height="38.957"/>
	<rect x="11.13" y="180.87" style="fill:#92999D;" width="66.783" height="38.957"/>
</g>
<path d="M130.052,125.433L256,401.319l125.946-275.885l-19.007-47.521h26.425L368.115,0h-224.23l-21.249,77.913h26.426
	L130.052,125.433z M256,211.478c-13.81,0-25.043-11.235-25.043-25.043c0-13.808,11.234-25.043,25.043-25.043
	c13.808,0,25.043,11.235,25.043,25.043C281.043,200.243,269.808,211.478,256,211.478z M363.793,125.001l-99.445,217.829V227.334
	c19.029-3.878,33.391-20.743,33.391-40.899c0-23.016-18.724-41.739-41.739-41.739s-41.739,18.724-41.739,41.739
	c0,20.157,14.363,37.021,33.391,40.899V342.83L148.208,125l18.834-47.087h177.914L363.793,125.001z M156.636,16.696h198.726
	l12.142,44.522h-223.01L156.636,16.696z"/>
<path d="M509.217,172.522h-83.478V256h33.288c-1.037,41.927-9.942,78.839-26.513,109.821c-14.056,26.28-33.673,48.453-58.308,65.902
	c-30.514,21.614-61.426,30.651-76.467,34.034v-37.235h-83.478v37.251c-14.911-3.335-45.452-12.24-75.894-33.645
	c-24.779-17.422-44.516-39.597-58.667-65.909C62.993,335.154,54.015,298.109,52.973,256h33.288v-83.478H2.783V256H36.28
	c1.059,44.921,10.701,84.629,28.717,118.128c15.392,28.619,36.847,52.728,63.768,71.657c35.469,24.939,70.638,34.107,85.497,37.074
	V512h83.478v-29.141c14.859-2.967,50.028-12.135,85.497-37.074c26.922-18.928,48.376-43.038,63.768-71.657
	c18.016-33.499,27.658-73.207,28.717-118.128h33.495V172.522z M19.478,189.217h50.087v50.087H19.478V189.217z M281.043,495.304
	h-50.087v-50.087h50.087V495.304z M492.522,239.304h-50.087v-50.087h50.087V239.304z"/>
<g>
	<rect x="33.391" y="205.913" style="fill:#FFFFFF;" width="22.261" height="16.696"/>
	<rect x="244.87" y="461.913" style="fill:#FFFFFF;" width="22.261" height="16.696"/>
	<rect x="456.348" y="205.913" style="fill:#FFFFFF;" width="22.261" height="16.696"/>
	<rect x="211.478" y="100.174" style="fill:#FFFFFF;" width="89.043" height="16.696"/>
</g>
</svg>